<svg fill="none" height="100" viewBox="29 29 42 42" width="100" xmlns="http://www.w3.org/2000/svg"><path d="m58.0362 38.899c-.0654-.0158-.1266-.0454-.1794-.0864-.0527-.0411-.0958-.0928-.1261-.1517-.0304-.0588-.0474-.1234-.05-.1892-.0024-.066.0097-.1314.0356-.1922.8941-2.1253 1.2886-3.8258.652-4.5377-1.6862-1.8887-8.4483 1.867-10.6043 3.139-.0578.0339-.1224.0554-.1892.0626-.067.0073-.1348.0003-.1988-.0202-.0639-.0206-.1226-.0545-.1721-.0993-.0493-.0448-.0881-.0995-.1139-.1602-.9063-2.1207-1.859-3.5959-2.8248-3.6598-2.5596-.1711-4.6227 7.1552-5.2267 9.543-.0161.064-.0462.1238-.0881.1752-.0421.0516-.095.0937-.1552.1233-.0602.0297-.1262.0463-.1936.0487-.0673.0024-.1344-.0094-.1967-.0347-2.1758-.8733-3.9175-1.2587-4.6457-.6367-1.9336 1.6469 1.9108 8.2517 3.2132 10.3577.0348.0562.0567.1193.0642.1848.0076.0653.0005.1316-.0205.1941-.0211.0626-.0558.1199-.1017.1681-.046.0482-.102.0861-.1644.1112-2.1705.8851-3.6807 1.8158-3.747 2.759-.1744 2.5002 7.3257 4.5154 9.7711 5.1053.0654.0159.1263.0454.179.0865.0525.041.0954.0927.1258.1514.0303.0588.0472.1232.0496.1889.0025.0658-.0095.1312-.0353.192-.8941 2.1252-1.2886 3.8265-.6519 4.5376 1.6861 1.8887 8.4489-1.8664 10.6051-3.1385.0576-.0339.1223-.0553.1893-.0627.0668-.0073.1347-.0005.1987.0201.064.0207.1227.0546.1721.0994.0493.0449.0882.0996.1139.1604.9062 2.1201 1.8582 3.5953 2.8246 3.66 2.5597.1704 4.6228-7.1553 5.226-9.5439.0163-.0639.0465-.1236.0886-.175.0422-.0515.0951-.0935.1554-.123.0602-.0295.1263-.0461.1937-.0484.0673-.0024.1344.0094.1967.0348 2.1759.8733 3.9168 1.2578 4.6457.6367 1.9336-1.647-1.9117-8.2525-3.2139-10.3585-.0346-.0563-.0563-.1194-.0637-.1848-.0075-.0653-.0003-.1315.0208-.1939.021-.0625.0556-.1198.1014-.168s.1017-.0863.1639-.1115c2.1712-.8852 3.6814-1.8159 3.747-2.7591.1751-2.5002-7.3257-4.5152-9.7704-5.1044zm-2.9366-2.3968c.4919.8614-2.0434 6.6012-3.929 10.6159-.0316.0671-.0834.1231-.1486.1607-.0651.0374-.1404.0545-.2159.0489-.0754-.0056-.1472-.0336-.2059-.0802-.0586-.0467-.1012-.1098-.122-.1808-.7615-2.6103-1.6321-5.6772-2.5635-8.2807-.0365-.1022-.0347-.2138.0052-.3147.04-.101.1153-.1849.2127-.2366 2.3259-1.2408 6.3059-2.8885 6.967-1.7325zm-11.1466.7105c.9711.2692 3.3335 6.0789 4.9061 10.22.0264.0692.0302.1445.0113.216-.019.0715-.0597.1355-.117.1836-.0574.0481-.1284.078-.2035.0856-.0752.0075-.1509-.0076-.217-.0433-2.4302-1.3174-5.264-2.887-7.8078-4.0846-.0996-.0472-.1787-.1274-.2235-.2263-.0448-.0988-.0522-.2101-.0209-.3137.7486-2.4816 2.3677-6.3982 3.6723-6.0373zm-7.3675 8.2011c.8811-.4806 6.7582 1.9959 10.8677 3.8377.0689.0307.1263.0814.1646.145.0385.0636.0559.1373.0502.2109-.0058.0737-.0344.1438-.0822.2011-.0478.0572-.1124.0989-.1851.1192-2.6716.7438-5.8124 1.5941-8.4779 2.5039-.1045.0354-.2186.0336-.3218-.0054s-.1889-.1125-.2418-.2074c-1.268-2.2719-2.958-6.1594-1.7737-6.805zm.7273 10.8873c.2749-.9484 6.2236-3.2559 10.4634-4.792.0708-.0256.148-.0295.2211-.011.0733.0185.1388.0584.188.1144.0492.0559.0798.1253.0875.1986.0077.0735-.0077.1474-.0442.2121-1.3496 2.3736-2.9565 5.1416-4.1827 7.6254-.0478.0976-.1299.1753-.2312.2191-.1014.044-.2154.0512-.3216.0204-2.5407-.7268-6.5504-2.3127-6.1803-3.587zm8.3964 7.1963c-.4927-.8607 2.0434-6.6011 3.929-10.6151.0315-.0672.0835-.1233.1486-.1607.0651-.0375.1404-.0546.2159-.049.0754.0055.1472.0336.2058.0803.0587.0466.1012.1097.122.1807.7616 2.6095 1.632 5.6773 2.5635 8.2808.0363.1022.0343.2136-.0057.3144s-.1156.1845-.2129.2361c-2.3251 1.2384-6.3059 2.8892-6.9639 1.7325zm11.1465-.7105c-.9718-.2685-3.3342-6.0788-4.9068-10.2199-.0263-.0694-.0304-.145-.0114-.2166.0189-.0715.0598-.1357.1173-.1838.0574-.0482.1286-.078.2038-.0854.0753-.0075.1512.0079.2173.0438 2.4294 1.3174 5.264 2.8877 7.807 4.0854.0998.0469.1792.1271.224.226.0448.099.0521.2103.0204.3141-.7479 2.4852-2.3669 6.3979-3.6716 6.0364zm7.3676-8.2012c-.8819.4813-6.7583-1.9958-10.8685-3.8376-.0688-.0308-.1263-.0814-.1646-.1451-.0384-.0636-.0559-.1372-.0502-.2108.0057-.0737.0344-.1439.0823-.2011.0477-.0572.1123-.0988.185-.1191 2.6724-.7439 5.8124-1.5942 8.4779-2.504.1048-.0355.219-.0335.3223.0056.1034.0391.1891.1129.242.208 1.2673 2.2711 2.9573 6.1592 1.7738 6.8041zm-.7273-10.8873c-.2757.9492-6.2236 3.2568-10.4634 4.7929-.071.0257-.1483.0295-.2216.0111-.0732-.0185-.1389-.0585-.1883-.1146-.0493-.0561-.0797-.1256-.0873-.1992-.0077-.0734.0079-.1475.0448-.2122 1.3488-2.3729 2.9557-5.1416 4.1819-7.6254.0482-.0974.1302-.1748.2315-.2185.1013-.0438.2152-.051.3214-.0203 2.5406.7305 6.5503 2.312 6.181 3.5862z" fill="currentColor"/></svg>