<svg width="100" height="100" viewBox="0 0 100 100" fill="none" xmlns="http://www.w3.org/2000/svg">
<g clip-path="url(#clip0_240_10463)">
<path fill-rule="evenodd" clip-rule="evenodd" d="M50.0001 2.65087e-05C38.1183 -0.0123578 26.6205 4.31489 17.5671 12.2063C8.51383 20.0977 2.49682 31.0375 0.594387 43.0651C-1.30804 55.0927 1.02846 67.4219 7.18519 77.8434C13.3419 88.2649 22.9164 96.0973 34.1929 99.9371C36.7098 100.409 37.5999 98.8039 37.5999 97.4504C37.5999 96.097 37.5999 93.0123 37.5999 88.7315C23.6343 91.8477 20.6877 81.8382 20.6877 81.8382C19.7612 78.736 17.7929 76.0707 15.1321 74.3154C10.6202 71.1678 15.5005 71.1678 15.5005 71.1678C17.0821 71.3969 18.5922 71.9921 19.9163 72.9082C21.2404 73.8244 22.3439 75.0375 23.1432 76.4558C23.8223 77.7186 24.7379 78.8315 25.8375 79.7305C26.937 80.6296 28.1989 81.2971 29.5506 81.6949C30.9024 82.0926 32.3174 82.2127 33.7145 82.0482C35.1116 81.8838 36.4633 81.438 37.692 80.7366C37.8846 78.1472 38.9732 75.7136 40.7613 73.8747C29.6502 72.5842 17.9866 68.1775 17.9866 48.6938C17.9103 43.604 19.7456 38.6791 23.1125 34.9386C21.613 30.5132 21.7882 25.6717 23.6036 21.3724C23.6036 21.3724 27.8086 19.9874 37.3544 26.6289C45.5514 24.321 54.2034 24.321 62.4004 26.6289C71.9461 19.9874 76.1205 21.3724 76.1205 21.3724C77.9611 25.6262 78.1801 30.4329 76.7343 34.8442C80.1012 38.5846 81.9365 43.5096 81.8602 48.5993C81.8602 68.3035 70.1659 72.6157 59.0241 73.7803C60.2188 75.0119 61.1413 76.4925 61.7292 78.1217C62.317 79.751 62.5564 81.4908 62.4311 83.2232C62.4311 90.085 62.4311 95.6248 62.4311 97.2931C62.4311 98.9613 63.3212 100.252 65.8688 99.7482C77.0169 95.8072 86.448 87.9524 92.496 77.5715C98.544 67.1906 100.82 54.9517 98.921 43.017C97.0223 31.0822 91.0715 20.2196 82.1198 12.3482C73.1681 4.47686 61.7916 0.103234 50.0001 2.65087e-05V2.65087e-05Z" fill="#191717"/>
</g>
<defs>
<clipPath id="clip0_240_10463">
<rect width="100" height="100" fill="white"/>
</clipPath>
</defs>
</svg>
