<svg fill="none" height="100" viewBox="32 32 37 37" width="100" xmlns="http://www.w3.org/2000/svg"><path d="m56.3999 61.7341h5.3333v4.2666h-6.7048l-2.8952-2.8952v-6.7047h4.2667zm9.5999-6.7047-2.8952-2.8953h-6.7047v4.2667h5.3333v5.3333h4.2666zm-18.1332-2.8953h-4.2667v4.2667h4.2667zm-13.8666 10.9714 2.8952 2.8952h10.9714v-4.2666h-9.6v-9.6h-4.2666zm27.1681-19.5048v-6.7047l-2.8952-2.8953h-6.1397v4.2667h4.7682v5.3333h-4.7682v4.2666h13.8666v-4.2666zm-22.9015-9.6h-4.2666v13.8666h4.2666v-4.7999h5.3333v4.7999h4.2667v-4.7999l-4.2667-4.2667h-5.3333zm9.6 0h-4.2667v4.8h4.2667z" fill="currentColor"/></svg>